<svg width="218" height="66" viewBox="0 0 218 66" fill="none" xmlns="http://www.w3.org/2000/svg">
<rect width="218" height="66" rx="33" fill="#F72222"/>
<path d="M87.4062 36.4746C87.2773 39.3926 86.457 41.6016 84.9453 43.1016C83.4336 44.6016 81.3008 45.3516 78.5469 45.3516C75.6523 45.3516 73.4316 44.4023 71.8848 42.5039C70.3496 40.5938 69.582 37.875 69.582 34.3477V30.041C69.582 26.5254 70.3789 23.8184 71.9727 21.9199C73.5664 20.0098 75.7812 19.0547 78.6172 19.0547C81.4062 19.0547 83.5215 19.834 84.9629 21.3926C86.416 22.9512 87.2422 25.1895 87.4414 28.1074H82.2559C82.209 26.3027 81.9277 25.0605 81.4121 24.3809C80.9082 23.6895 79.9766 23.3438 78.6172 23.3438C77.2344 23.3438 76.2559 23.8301 75.6816 24.8027C75.1074 25.7637 74.8027 27.3516 74.7676 29.5664V34.4004C74.7676 36.9434 75.0488 38.6895 75.6113 39.6387C76.1855 40.5879 77.1641 41.0625 78.5469 41.0625C79.9062 41.0625 80.8438 40.7344 81.3594 40.0781C81.875 39.4102 82.168 38.209 82.2383 36.4746H87.4062ZM95.5625 45H90.5703V18H95.5625V45ZM107.094 45.3516C104.539 45.3516 102.547 44.5898 101.117 43.0664C99.6875 41.543 98.9727 39.3633 98.9727 36.5273V35.0156C98.9727 32.0156 99.6289 29.7012 100.941 28.0723C102.254 26.4434 104.135 25.6289 106.584 25.6289C108.975 25.6289 110.773 26.3965 111.98 27.9316C113.188 29.4551 113.803 31.7168 113.826 34.7168V37.1602H103.93C104 38.5664 104.311 39.5977 104.861 40.2539C105.412 40.8984 106.262 41.2207 107.41 41.2207C109.074 41.2207 110.463 40.6523 111.576 39.5156L113.527 42.5215C112.918 43.3652 112.033 44.0508 110.873 44.5781C109.713 45.0938 108.453 45.3516 107.094 45.3516ZM103.965 33.6797H108.939V33.2227C108.916 32.0859 108.729 31.2246 108.377 30.6387C108.025 30.0527 107.416 29.7598 106.549 29.7598C105.682 29.7598 105.049 30.0703 104.65 30.6914C104.264 31.3125 104.035 32.3086 103.965 33.6797ZM125.674 45C125.533 44.707 125.393 44.2148 125.252 43.5234C124.361 44.7422 123.154 45.3516 121.631 45.3516C120.037 45.3516 118.713 44.8242 117.658 43.7695C116.615 42.7148 116.094 41.3496 116.094 39.6738C116.094 37.6816 116.727 36.1406 117.992 35.0508C119.27 33.9609 121.104 33.4043 123.494 33.3809H125.006V31.8516C125.006 30.9961 124.859 30.3926 124.566 30.041C124.273 29.6895 123.846 29.5137 123.283 29.5137C122.041 29.5137 121.42 30.2402 121.42 31.6934H116.445C116.445 29.9355 117.102 28.4883 118.414 27.3516C119.738 26.2031 121.408 25.6289 123.424 25.6289C125.51 25.6289 127.121 26.1738 128.258 27.2637C129.406 28.3418 129.98 29.8887 129.98 31.9043V40.8516C130.004 42.4922 130.238 43.7754 130.684 44.7012V45H125.674ZM122.738 41.4492C123.289 41.4492 123.758 41.3379 124.145 41.1152C124.531 40.8926 124.818 40.6289 125.006 40.3242V36.3691H123.811C122.967 36.3691 122.299 36.6387 121.807 37.1777C121.326 37.7168 121.086 38.4375 121.086 39.3398C121.086 40.7461 121.637 41.4492 122.738 41.4492ZM138.137 25.9805L138.277 27.8613C139.402 26.373 140.873 25.6289 142.689 25.6289C145.959 25.6289 147.641 27.9199 147.734 32.502V45H142.742V32.8711C142.742 31.793 142.578 31.0137 142.25 30.5332C141.934 30.041 141.371 29.7949 140.562 29.7949C139.66 29.7949 138.957 30.2578 138.453 31.1836V45H133.461V25.9805H138.137Z" fill="white"/>
</svg>
