<svg width="69" height="25" viewBox="0 0 69 25" fill="none" xmlns="http://www.w3.org/2000/svg">
<path d="M32.0977 16.0703C32.0977 18.125 31.7695 19.668 31.1133 20.6992C30.457 21.7227 29.4258 22.2344 28.0195 22.2344C26.918 22.2344 26.0352 21.7383 25.3711 20.7461L25.2656 22H22.207V4H25.5234V10.3516C26.1484 9.50781 26.9727 9.08594 27.9961 9.08594C29.4023 9.08594 30.4336 9.59766 31.0898 10.6211C31.7461 11.6367 32.082 13.1289 32.0977 15.0977V16.0703ZM28.7812 15.2383C28.7812 13.9023 28.6523 13.0078 28.3945 12.5547C28.1367 12.0938 27.6875 11.8633 27.0469 11.8633C26.3516 11.8633 25.8438 12.1797 25.5234 12.8125V18.5898C25.8203 19.1836 26.3359 19.4805 27.0703 19.4805C27.7031 19.4805 28.1406 19.2734 28.3828 18.8594C28.6328 18.4453 28.7656 17.6406 28.7812 16.4453V15.2383ZM40.1133 22C40.0195 21.8047 39.9258 21.4766 39.832 21.0156C39.2383 21.8281 38.4336 22.2344 37.418 22.2344C36.3555 22.2344 35.4727 21.8828 34.7695 21.1797C34.0742 20.4766 33.7266 19.5664 33.7266 18.4492C33.7266 17.1211 34.1484 16.0938 34.9922 15.3672C35.8438 14.6406 37.0664 14.2695 38.6602 14.2539H39.668V13.2344C39.668 12.6641 39.5703 12.2617 39.375 12.0273C39.1797 11.793 38.8945 11.6758 38.5195 11.6758C37.6914 11.6758 37.2773 12.1602 37.2773 13.1289H33.9609C33.9609 11.957 34.3984 10.9922 35.2734 10.2344C36.1562 9.46875 37.2695 9.08594 38.6133 9.08594C40.0039 9.08594 41.0781 9.44922 41.8359 10.1758C42.6016 10.8945 42.9844 11.9258 42.9844 13.2695V19.2344C43 20.3281 43.1562 21.1836 43.4531 21.8008V22H40.1133ZM38.1562 19.6328C38.5234 19.6328 38.8359 19.5586 39.0938 19.4102C39.3516 19.2617 39.543 19.0859 39.668 18.8828V16.2461H38.8711C38.3086 16.2461 37.8633 16.4258 37.5352 16.7852C37.2148 17.1445 37.0547 17.625 37.0547 18.2266C37.0547 19.1641 37.4219 19.6328 38.1562 19.6328ZM49.9688 19.4805C50.9297 19.4805 51.418 18.8555 51.4336 17.6055H54.5508C54.5352 18.9883 54.1094 20.1055 53.2734 20.957C52.4375 21.8086 51.3594 22.2344 50.0391 22.2344C48.4062 22.2344 47.1602 21.7266 46.3008 20.7109C45.4414 19.6953 45.0039 18.1992 44.9883 16.2227V15.2148C44.9883 13.2227 45.4102 11.7031 46.2539 10.6562C47.1055 9.60938 48.3594 9.08594 50.0156 9.08594C51.4141 9.08594 52.5156 9.51953 53.3203 10.3867C54.125 11.2461 54.5352 12.4688 54.5508 14.0547H51.4336C51.4258 13.3438 51.3086 12.7969 51.082 12.4141C50.8555 12.0312 50.4805 11.8398 49.957 11.8398C49.3789 11.8398 48.9648 12.0469 48.7148 12.4609C48.4648 12.8672 48.332 13.6602 48.3164 14.8398V16.1289C48.3164 17.1602 48.3672 17.8828 48.4688 18.2969C48.5703 18.7031 48.7383 19.0039 48.9727 19.1992C49.207 19.3867 49.5391 19.4805 49.9688 19.4805ZM60.6328 17.1133L59.7422 18.1094V22H56.4258V4H59.7422V13.7266L60.1523 13.1172L62.4492 9.32031H66.3984L62.7188 14.5469L66.75 22H62.9531L60.6328 17.1133Z" fill="white"/>
<path fill-rule="evenodd" clip-rule="evenodd" d="M12 20.8571L3.3913 13L12 5.14286L10.9565 3L0 13L10.9565 23L12 20.8571Z" fill="white"/>
</svg>
