<svg width="237" height="70" viewBox="0 0 237 70" fill="none" xmlns="http://www.w3.org/2000/svg">
<rect width="237" height="70" rx="35" fill="#F72222"/>
<path d="M80.4531 47H75.2852V21.4062H80.4531V47ZM89.1016 27.9805L89.2422 29.8613C90.3672 28.373 91.8379 27.6289 93.6543 27.6289C96.9238 27.6289 98.6055 29.9199 98.6992 34.502V47H93.707V34.8711C93.707 33.793 93.543 33.0137 93.2148 32.5332C92.8984 32.041 92.3359 31.7949 91.5273 31.7949C90.625 31.7949 89.9219 32.2578 89.418 33.1836V47H84.4258V27.9805H89.1016ZM107.488 47H102.496V27.9805H107.488V47ZM102.268 23.0586C102.268 22.2852 102.514 21.6523 103.006 21.1602C103.498 20.668 104.154 20.4219 104.975 20.4219C105.795 20.4219 106.451 20.668 106.943 21.1602C107.436 21.6523 107.682 22.2852 107.682 23.0586C107.682 23.8203 107.436 24.4531 106.943 24.957C106.463 25.4609 105.807 25.7129 104.975 25.7129C104.143 25.7129 103.48 25.4609 102.988 24.957C102.508 24.4531 102.268 23.8203 102.268 23.0586ZM118.211 43.2207C119.652 43.2207 120.385 42.2832 120.408 40.4082H125.084C125.061 42.4824 124.422 44.1582 123.168 45.4355C121.914 46.7129 120.297 47.3516 118.316 47.3516C115.867 47.3516 113.998 46.5898 112.709 45.0664C111.42 43.543 110.764 41.2988 110.74 38.334V36.8223C110.74 33.834 111.373 31.5547 112.639 29.9844C113.916 28.4141 115.797 27.6289 118.281 27.6289C120.379 27.6289 122.031 28.2793 123.238 29.5801C124.445 30.8691 125.061 32.7031 125.084 35.082H120.408C120.396 34.0156 120.221 33.1953 119.881 32.6211C119.541 32.0469 118.979 31.7598 118.193 31.7598C117.326 31.7598 116.705 32.0703 116.33 32.6914C115.955 33.3008 115.756 34.4902 115.732 36.2598V38.1934C115.732 39.7402 115.809 40.8242 115.961 41.4453C116.113 42.0547 116.365 42.5059 116.717 42.7988C117.068 43.0801 117.566 43.2207 118.211 43.2207ZM133.117 47H128.125V27.9805H133.117V47ZM127.896 23.0586C127.896 22.2852 128.143 21.6523 128.635 21.1602C129.127 20.668 129.783 20.4219 130.604 20.4219C131.424 20.4219 132.08 20.668 132.572 21.1602C133.064 21.6523 133.311 22.2852 133.311 23.0586C133.311 23.8203 133.064 24.4531 132.572 24.957C132.092 25.4609 131.436 25.7129 130.604 25.7129C129.771 25.7129 129.109 25.4609 128.617 24.957C128.137 24.4531 127.896 23.8203 127.896 23.0586ZM146.002 47C145.861 46.707 145.721 46.2148 145.58 45.5234C144.689 46.7422 143.482 47.3516 141.959 47.3516C140.365 47.3516 139.041 46.8242 137.986 45.7695C136.943 44.7148 136.422 43.3496 136.422 41.6738C136.422 39.6816 137.055 38.1406 138.32 37.0508C139.598 35.9609 141.432 35.4043 143.822 35.3809H145.334V33.8516C145.334 32.9961 145.188 32.3926 144.895 32.041C144.602 31.6895 144.174 31.5137 143.611 31.5137C142.369 31.5137 141.748 32.2402 141.748 33.6934H136.773C136.773 31.9355 137.43 30.4883 138.742 29.3516C140.066 28.2031 141.736 27.6289 143.752 27.6289C145.838 27.6289 147.449 28.1738 148.586 29.2637C149.734 30.3418 150.309 31.8887 150.309 33.9043V42.8516C150.332 44.4922 150.566 45.7754 151.012 46.7012V47H146.002ZM143.066 43.4492C143.617 43.4492 144.086 43.3379 144.473 43.1152C144.859 42.8926 145.146 42.6289 145.334 42.3242V38.3691H144.139C143.295 38.3691 142.627 38.6387 142.135 39.1777C141.654 39.7168 141.414 40.4375 141.414 41.3398C141.414 42.7461 141.965 43.4492 143.066 43.4492ZM163.299 32.7793L161.646 32.6387C160.287 32.6387 159.367 33.2363 158.887 34.4316V47H153.895V27.9805H158.588L158.729 30.0371C159.514 28.4316 160.598 27.6289 161.98 27.6289C162.543 27.6289 163 27.7051 163.352 27.8574L163.299 32.7793Z" fill="white"/>
</svg>
