<svg width="66" height="66" viewBox="0 0 66 66" fill="none" xmlns="http://www.w3.org/2000/svg">
<circle cx="33" cy="33" r="33" fill="#F72222"/>
<path d="M23 31.625H43V34.375H23V31.625ZM33.0029 22C32.2451 21.9993 31.5181 22.2883 30.9817 22.8035C30.4454 23.3187 30.1436 24.0179 30.1429 24.7473C30.1421 25.4766 30.4424 26.1764 30.9777 26.6926C31.513 27.2088 32.2394 27.4993 32.9971 27.5C33.7549 27.5007 34.4819 27.2117 35.0183 26.6965C35.5546 26.1813 35.8564 25.4821 35.8571 24.7528C35.8579 24.0234 35.5576 23.3236 35.0223 22.8074C34.487 22.2912 33.7606 22.0007 33.0029 22ZM33.0029 38.5C32.2451 38.4993 31.5181 38.7883 30.9817 39.3035C30.4454 39.8187 30.1436 40.5179 30.1429 41.2472C30.1421 41.9766 30.4424 42.6764 30.9777 43.1926C31.513 43.7088 32.2394 43.9993 32.9971 44C33.7549 44.0007 34.4819 43.7117 35.0183 43.1965C35.5546 42.6813 35.8564 41.9821 35.8571 41.2528C35.8579 40.5234 35.5576 39.8236 35.0223 39.3074C34.487 38.7912 33.7606 38.5007 33.0029 38.5Z" fill="white"/>
</svg>
