<svg width="66" height="65" viewBox="0 0 66 65" fill="none" xmlns="http://www.w3.org/2000/svg">
<ellipse cx="33" cy="32.5" rx="33" ry="32.5" fill="#C4C4C4"/>
<path d="M46 50H22.7038V45.4946L33.7537 33.4959C34.6139 32.5474 35.3412 31.6859 35.9355 30.9112C36.5298 30.1366 37.0068 29.4332 37.3666 28.8008C37.7419 28.1527 38.0078 27.5519 38.1642 26.9986C38.3363 26.4453 38.4223 25.9079 38.4223 25.3862C38.4223 24.6116 38.3128 23.9239 38.0938 23.3232C37.8749 22.7224 37.5621 22.2166 37.1554 21.8056C36.7644 21.3787 36.2874 21.0547 35.7243 20.8333C35.1769 20.612 34.567 20.5014 33.8944 20.5014C32.0958 20.5014 30.7507 21.0072 29.8592 22.019C28.9834 23.0307 28.5455 24.4456 28.5455 26.2635H22C22 24.7301 22.2893 23.2836 22.868 21.9241C23.4467 20.5488 24.26 19.3473 25.3079 18.3198C26.3715 17.2922 27.6461 16.486 29.132 15.9011C30.6334 15.3004 32.2913 15 34.1056 15C35.8416 15 37.3744 15.245 38.7038 15.7351C40.0489 16.2252 41.1672 16.9128 42.0587 17.7981C42.9658 18.6834 43.654 19.7505 44.1232 20.9993C44.5924 22.2324 44.827 23.5998 44.827 25.1016C44.827 26.2398 44.6471 27.3306 44.2874 28.374C43.9433 29.4015 43.4428 30.4212 42.7859 31.4329C42.1447 32.4447 41.3705 33.4801 40.4633 34.5393C39.5562 35.5827 38.5474 36.6813 37.437 37.8354L31.0088 44.7121H46V50Z" fill="black"/>
</svg>
