<svg width="66" height="65" viewBox="0 0 66 65" fill="none" xmlns="http://www.w3.org/2000/svg">
<ellipse cx="33" cy="32.5" rx="33" ry="32.5" fill="#C4C4C4"/>
<path d="M22.8946 32.5237L24.8485 15H43.87V20.5962H30.2395L29.4156 28.1843C29.9021 27.8997 30.5926 27.6073 31.4872 27.3069C32.3818 27.0065 33.4098 26.8564 34.5711 26.8564C36.219 26.8564 37.6865 27.1251 38.9734 27.6626C40.276 28.1843 41.3668 28.9431 42.2456 29.939C43.1402 30.935 43.8229 32.1522 44.2938 33.5908C44.7646 35.0294 45 36.6576 45 38.4756C45 40.0248 44.7724 41.495 44.3173 42.8862C43.8622 44.2773 43.1638 45.5025 42.2221 46.5617C41.2804 47.6208 40.0955 48.4587 38.6673 49.0752C37.2392 49.6917 35.552 50 33.6059 50C32.1307 50 30.7025 49.7787 29.3214 49.336C27.956 48.8934 26.7397 48.2453 25.6725 47.3916C24.6053 46.5379 23.7342 45.4946 23.0594 44.2615C22.4002 43.0126 22.0471 41.5899 22 39.9932H28.4504C28.6073 41.495 29.1409 42.657 30.0512 43.479C30.9771 44.301 32.1542 44.7121 33.5824 44.7121C34.4613 44.7121 35.2068 44.5461 35.8188 44.2141C36.4466 43.8821 36.9488 43.4237 37.3255 42.8388C37.7178 42.2538 38.0003 41.5583 38.173 40.752C38.3613 39.9458 38.4555 39.0763 38.4555 38.1436C38.4555 37.2267 38.3378 36.3889 38.1024 35.6301C37.8826 34.8555 37.5374 34.1915 37.0665 33.6382C36.5957 33.0849 36.0072 32.6581 35.3009 32.3577C34.5947 32.0574 33.7629 31.9072 32.8055 31.9072C32.1621 31.9072 31.6049 31.9625 31.1341 32.0732C30.6633 32.1838 30.2474 32.3261 29.8864 32.5C29.5254 32.6739 29.2037 32.8794 28.9212 33.1165C28.6387 33.3378 28.3719 33.575 28.1208 33.8279L22.8946 32.5237Z" fill="black"/>
</svg>
