<svg width="66" height="65" viewBox="0 0 66 65" fill="none" xmlns="http://www.w3.org/2000/svg">
<ellipse cx="33" cy="32.5" rx="33" ry="32.5" fill="#C4C4C4"/>
<path d="M39.7069 15V20.4335H39.3202C37.5478 20.4335 35.9768 20.6608 34.6073 21.1156C33.2538 21.5703 32.0937 22.2133 31.1269 23.0444C30.1762 23.8754 29.4189 24.8712 28.855 26.0316C28.3072 27.192 27.9607 28.4857 27.8157 29.9126C28.1863 29.5206 28.6133 29.1364 29.0967 28.7601C29.5801 28.3681 30.1198 28.0231 30.716 27.7251C31.3283 27.4115 31.9889 27.1606 32.6979 26.9724C33.4068 26.7843 34.1722 26.6902 34.994 26.6902C36.6697 26.6902 38.1279 27.0038 39.3686 27.631C40.6254 28.2426 41.6727 29.0815 42.5106 30.1479C43.3484 31.1985 43.9688 32.4294 44.3716 33.8407C44.7905 35.2363 45 36.7104 45 38.2628C45 39.925 44.7261 41.4695 44.1782 42.8965C43.6304 44.3235 42.8489 45.5623 41.8338 46.6129C40.8187 47.6635 39.5861 48.4946 38.136 49.1062C36.6858 49.7021 35.0584 50 33.2538 50C31.3686 50 29.6687 49.6629 28.1541 48.9886C26.6395 48.2986 25.3505 47.3499 24.287 46.1425C23.2397 44.935 22.426 43.5081 21.8459 41.8616C21.282 40.1994 21 38.3882 21 36.4281V33.9113C21 31.1985 21.3787 28.6895 22.136 26.3844C22.8933 24.0636 24.0211 22.0643 25.5196 20.3864C27.0181 18.6929 28.8792 17.3757 31.1027 16.4348C33.3263 15.4783 35.8963 15 38.8127 15H39.7069ZM33.0363 31.9355C31.8278 31.9355 30.7563 32.2491 29.8218 32.8763C28.9033 33.5036 28.2105 34.3112 27.7432 35.2991V37.2278C27.7432 38.4823 27.8721 39.58 28.1299 40.5208C28.4038 41.4617 28.7825 42.2457 29.2659 42.873C29.7492 43.4845 30.3212 43.9471 30.9819 44.2608C31.6425 44.5744 32.3595 44.7312 33.1329 44.7312C33.9225 44.7312 34.6395 44.5744 35.284 44.2608C35.9285 43.9315 36.4763 43.4845 36.9275 42.92C37.3787 42.3555 37.7251 41.6891 37.9668 40.9207C38.2085 40.1366 38.3293 39.282 38.3293 38.3569C38.3293 37.4317 38.2085 36.5771 37.9668 35.793C37.7251 35.009 37.3787 34.3347 36.9275 33.7702C36.4763 33.19 35.9204 32.7431 35.2598 32.4294C34.6153 32.1001 33.8741 31.9355 33.0363 31.9355Z" fill="black"/>
</svg>
