<svg width="66" height="65" viewBox="0 0 66 65" fill="none" xmlns="http://www.w3.org/2000/svg">
<ellipse cx="33" cy="32.5" rx="33" ry="32.5" fill="#C4C4C4"/>
<path d="M44.2702 24.5221C44.2702 26.1754 43.8465 27.6493 42.999 28.9439C42.1672 30.2228 41.0215 31.2444 39.5619 32.0087C41.2255 32.7885 42.5438 33.8803 43.5169 35.2841C44.5056 36.6878 45 38.3333 45 40.2206C45 41.8271 44.7018 43.2386 44.1054 44.4552C43.5247 45.6718 42.7165 46.6934 41.6807 47.5201C40.6605 48.3311 39.4521 48.9472 38.0553 49.3683C36.6585 49.7894 35.1518 50 33.5353 50C31.9031 50 30.3808 49.7894 28.9683 49.3683C27.5715 48.9472 26.3552 48.3311 25.3193 47.5201C24.2835 46.6934 23.4674 45.6718 22.871 44.4552C22.2903 43.2386 22 41.8271 22 40.2206C22 39.2848 22.1256 38.4035 22.3767 37.5769C22.6435 36.7346 23.0123 35.9704 23.4831 35.2841C23.9539 34.5822 24.5189 33.9583 25.1781 33.4124C25.853 32.8509 26.6063 32.3752 27.4381 31.9853C25.9785 31.2366 24.8328 30.2228 24.001 28.9439C23.1692 27.6493 22.7533 26.1754 22.7533 24.5221C22.7533 22.9779 23.0201 21.621 23.5537 20.4512C24.0873 19.2658 24.825 18.2676 25.7666 17.4566C26.724 16.6455 27.854 16.0372 29.1566 15.6317C30.4749 15.2106 31.911 15 33.4647 15C35.0184 15 36.4545 15.2106 37.7728 15.6317C39.0911 16.0372 40.2289 16.6455 41.1863 17.4566C42.1593 18.2676 42.9127 19.2658 43.4463 20.4512C43.9956 21.621 44.2702 22.9779 44.2702 24.5221ZM38.4319 39.7761C38.4319 38.9962 38.3142 38.2943 38.0788 37.6705C37.8434 37.0466 37.506 36.5163 37.0665 36.0795C36.6428 35.6272 36.1249 35.2841 35.5128 35.0501C34.9164 34.8162 34.2416 34.6992 33.4882 34.6992C32.7349 34.6992 32.0522 34.8162 31.4401 35.0501C30.8437 35.2841 30.3337 35.6272 29.9099 36.0795C29.4862 36.5163 29.1566 37.0466 28.9212 37.6705C28.6858 38.2943 28.5681 38.9962 28.5681 39.7761C28.5681 41.3358 29.0154 42.5602 29.9099 43.4492C30.8045 44.3382 32.013 44.7828 33.5353 44.7828C34.2572 44.7828 34.9164 44.6736 35.5128 44.4552C36.1092 44.2213 36.6192 43.8859 37.043 43.4492C37.4824 43.0125 37.8199 42.49 38.0553 41.8817C38.3064 41.2578 38.4319 40.5559 38.4319 39.7761ZM37.7492 24.8262C37.7492 24.1399 37.6472 23.516 37.4432 22.9545C37.2392 22.393 36.9488 21.9173 36.5722 21.5274C36.2112 21.1219 35.7639 20.8099 35.2303 20.5916C34.7124 20.3732 34.1238 20.264 33.4647 20.264C32.1307 20.264 31.1027 20.6696 30.3808 21.4806C29.6588 22.2917 29.2979 23.4069 29.2979 24.8262C29.2979 25.5125 29.392 26.1442 29.5803 26.7213C29.7687 27.2828 30.0433 27.7663 30.4043 28.1718C30.781 28.5773 31.2282 28.8971 31.7462 29.131C32.2798 29.3494 32.8762 29.4586 33.5353 29.4586C34.1945 29.4586 34.783 29.3494 35.3009 29.131C35.8188 28.8971 36.2583 28.5773 36.6192 28.1718C36.9802 27.7663 37.2549 27.2828 37.4432 26.7213C37.6472 26.1442 37.7492 25.5125 37.7492 24.8262Z" fill="black"/>
</svg>
