<svg width="142" height="65" viewBox="0 0 142 65" fill="none" xmlns="http://www.w3.org/2000/svg">
<rect width="142" height="65" rx="32" fill="#C4C4C4"/>
<path d="M82.5234 36.0156C82.5234 38.2188 82.2656 40.1641 81.75 41.8516C81.25 43.5234 80.5234 44.9297 79.5703 46.0703C78.6172 47.1953 77.4531 48.0469 76.0781 48.625C74.7031 49.2031 73.1562 49.4922 71.4375 49.4922C69.7344 49.4922 68.1953 49.2031 66.8203 48.625C65.4453 48.0469 64.2734 47.1953 63.3047 46.0703C62.3516 44.9297 61.6094 43.5234 61.0781 41.8516C60.5625 40.1641 60.3047 38.2188 60.3047 36.0156V27.8594C60.3047 25.6562 60.5625 23.7188 61.0781 22.0469C61.5938 20.3594 62.3281 18.9531 63.2812 17.8281C64.25 16.6875 65.4141 15.8281 66.7734 15.25C68.1484 14.6719 69.6875 14.3828 71.3906 14.3828C73.1094 14.3828 74.6562 14.6719 76.0312 15.25C77.4062 15.8281 78.5703 16.6875 79.5234 17.8281C80.4922 18.9531 81.2344 20.3594 81.75 22.0469C82.2656 23.7188 82.5234 25.6562 82.5234 27.8594V36.0156ZM66.8672 33.2031L75.9609 26.4297C75.9141 24.1328 75.5156 22.4297 74.7656 21.3203C74.0156 20.2109 72.8906 19.6562 71.3906 19.6562C69.875 19.6562 68.7422 20.2422 67.9922 21.4141C67.2422 22.5859 66.8672 24.3906 66.8672 26.8281V33.2031ZM75.9609 30.8594L66.8672 37.6094C66.9453 39.8594 67.3594 41.5312 68.1094 42.625C68.8594 43.7031 69.9688 44.2422 71.4375 44.2422C72.9688 44.2422 74.1016 43.6484 74.8359 42.4609C75.5859 41.2734 75.9609 39.4531 75.9609 37V30.8594Z" fill="black"/>
</svg>
