<svg width="66" height="65" viewBox="0 0 66 65" fill="none" xmlns="http://www.w3.org/2000/svg">
<ellipse cx="33" cy="32.5" rx="33" ry="32.5" fill="#C4C4C4"/>
<path d="M29.125 29.6457V34.6992H32.9C33.85 34.6992 34.7 34.8006 35.45 35.0033C36.2167 35.2061 36.875 35.518 37.425 35.9392C37.9583 36.3603 38.3667 36.8984 38.65 37.5535C38.9333 38.2086 39.075 38.9962 39.075 39.9164C39.075 40.6495 38.95 41.3124 38.7 41.9051C38.4667 42.4978 38.1167 42.9969 37.65 43.4024C37.1667 43.8547 36.5667 44.1979 35.85 44.4318C35.1333 44.6658 34.325 44.7828 33.425 44.7828C32.625 44.7828 31.8917 44.6736 31.225 44.4552C30.5583 44.2213 29.9833 43.9015 29.5 43.496C29 43.1061 28.6167 42.6381 28.35 42.0922C28.0833 41.5307 27.95 40.9225 27.95 40.2674H21C21 41.9207 21.3417 43.3556 22.025 44.5722C22.725 45.7888 23.65 46.7948 24.8 47.5902C25.95 48.4013 27.2583 49.0096 28.725 49.4151C30.2083 49.805 31.725 50 33.275 50C35.075 50 36.75 49.7816 38.3 49.3449C39.8667 48.8926 41.2167 48.2375 42.35 47.3797C43.4833 46.5374 44.375 45.4924 45.025 44.2447C45.675 42.9969 46 41.5775 46 39.9866C46 39.082 45.8833 38.2242 45.65 37.4131C45.4167 36.602 45.0583 35.8534 44.575 35.1671C44.0917 34.4964 43.475 33.8959 42.725 33.3656C41.9917 32.8353 41.1167 32.3986 40.1 32.0555C40.9667 31.6656 41.7333 31.2054 42.4 30.6751C43.0667 30.1292 43.625 29.5365 44.075 28.8971C44.525 28.2576 44.8667 27.5869 45.1 26.885C45.3333 26.1676 45.45 25.4423 45.45 24.7092C45.45 23.1183 45.15 21.7224 44.55 20.5214C43.9667 19.3048 43.1417 18.2832 42.075 17.4566C41.0083 16.6455 39.725 16.0372 38.225 15.6317C36.725 15.2106 35.075 15 33.275 15C31.6083 15 30.05 15.2262 28.6 15.6785C27.1667 16.1308 25.9167 16.7625 24.85 17.5735C23.7833 18.4002 22.9417 19.3828 22.325 20.5214C21.725 21.66 21.425 22.9234 21.425 24.3115H28.375C28.375 23.6876 28.5083 23.1261 28.775 22.627C29.0417 22.1279 29.4083 21.699 29.875 21.3402C30.325 20.9971 30.85 20.732 31.45 20.5448C32.0667 20.3576 32.725 20.264 33.425 20.264C34.275 20.264 35.0167 20.3732 35.65 20.5916C36.3 20.8099 36.8333 21.1141 37.25 21.504C37.6667 21.9095 37.975 22.393 38.175 22.9545C38.3917 23.5004 38.5 24.1087 38.5 24.7794C38.5 25.4657 38.3917 26.1052 38.175 26.6979C37.975 27.275 37.6667 27.7663 37.25 28.1718C36.8 28.6397 36.2083 29.0062 35.475 29.2714C34.7583 29.5209 33.9 29.6457 32.9 29.6457H29.125Z" fill="black"/>
</svg>
