<svg width="66" height="65" viewBox="0 0 66 65" fill="none" xmlns="http://www.w3.org/2000/svg">
<ellipse cx="33" cy="32.5" rx="33" ry="32.5" fill="#C4C4C4"/>
<path d="M27.5493 44.5195C29.3125 44.5195 30.8395 44.3313 32.1304 43.955C33.4213 43.5786 34.4997 43.0376 35.3655 42.332C36.2471 41.6107 36.924 40.7404 37.3963 39.7211C37.8843 38.6862 38.1992 37.5179 38.3409 36.2164C37.6797 36.875 36.8296 37.4395 35.7906 37.9099C34.7515 38.3804 33.4921 38.6156 32.0123 38.6156C30.3751 38.6156 28.9346 38.3177 27.691 37.7218C26.4473 37.1259 25.4004 36.3105 24.5503 35.2755C23.7159 34.2406 23.0784 33.0253 22.6376 31.6297C22.2125 30.2184 22 28.7052 22 27.0901C22 25.4279 22.2598 23.8676 22.7793 22.4093C23.3145 20.9353 24.078 19.6494 25.0698 18.5517C26.0616 17.4541 27.258 16.5916 28.6591 15.9644C30.076 15.3215 31.666 15 33.4292 15C35.2238 15 36.8374 15.345 38.27 16.0349C39.7026 16.7249 40.9148 17.6893 41.9066 18.9281C42.9141 20.1669 43.6776 21.6409 44.1971 23.3501C44.7324 25.0594 45 26.9332 45 28.9718V31.2298C45 33.9583 44.6615 36.4673 43.9846 38.7567C43.3077 41.0461 42.2608 43.0298 40.8439 44.7077C39.4271 46.3698 37.6246 47.6714 35.4363 48.6122C33.2481 49.5374 30.6348 50 27.5965 50H27.1006V44.5195H27.5493ZM33.5708 33.5585C34.1691 33.5585 34.7201 33.4722 35.2238 33.2997C35.7433 33.1272 36.2077 32.892 36.617 32.5941C37.0421 32.2805 37.4042 31.9198 37.7033 31.5121C38.0181 31.0887 38.27 30.634 38.4589 30.1479V27.8192C38.4589 26.5647 38.3251 25.4671 38.0575 24.5262C37.8056 23.5853 37.4514 22.8013 36.9949 22.1741C36.5383 21.5468 36.0031 21.0764 35.3891 20.7628C34.7752 20.4491 34.114 20.2923 33.4055 20.2923C32.6342 20.2923 31.9415 20.4805 31.3275 20.8569C30.7293 21.2175 30.2255 21.7115 29.8162 22.3387C29.4069 22.9503 29.0921 23.6638 28.8717 24.4792C28.6513 25.2789 28.5411 26.1178 28.5411 26.996C28.5411 27.8741 28.6434 28.713 28.848 29.5128C29.0527 30.3125 29.3597 31.0103 29.769 31.6062C30.194 32.2021 30.7214 32.6803 31.3511 33.041C31.9808 33.386 32.7207 33.5585 33.5708 33.5585Z" fill="black"/>
</svg>
